<svg width="80" height="80" viewBox="0 0 80 80" fill="none" xmlns="http://www.w3.org/2000/svg">
<g clip-path="url(#clip0_3010_1685)">
<path d="M33.3337 53.3334H46.667C48.5003 53.3334 50.0003 51.8334 50.0003 50.0001V33.3334H55.3003C58.267 33.3334 59.767 29.7334 57.667 27.6334L42.367 12.3334C41.067 11.0334 38.967 11.0334 37.667 12.3334L22.367 27.6334C20.267 29.7334 21.7337 33.3334 24.7003 33.3334H30.0003V50.0001C30.0003 51.8334 31.5003 53.3334 33.3337 53.3334ZM20.0003 60.0001H60.0003C61.8337 60.0001 63.3337 61.5001 63.3337 63.3334C63.3337 65.1667 61.8337 66.6667 60.0003 66.6667H20.0003C18.167 66.6667 16.667 65.1667 16.667 63.3334C16.667 61.5001 18.167 60.0001 20.0003 60.0001Z" fill="silver"/>
</g>
<defs>
<clipPath id="clip0_3010_1685">
<rect width="80" height="80" fill="white"/>
</clipPath>
</defs>
</svg>
